<svg width="20" height="20" viewBox="0 0 20 20" fill="none" xmlns="http://www.w3.org/2000/svg">
<mask id="mask0_0_21" style="mask-type:alpha" maskUnits="userSpaceOnUse" x="0" y="0" width="20" height="20">
<rect width="20" height="20" fill="#D9D9D9"/>
</mask>
<g mask="url(#mask0_0_21)">
<path d="M10.0001 18.3334C8.8473 18.3334 7.76397 18.1145 6.75008 17.6767C5.73619 17.2395 4.85425 16.6459 4.10425 15.8959C3.35425 15.1459 2.76064 14.2639 2.32341 13.25C1.88564 12.2361 1.66675 11.1528 1.66675 10C1.66675 8.84724 1.88564 7.76391 2.32341 6.75002C2.76064 5.73613 3.35425 4.85419 4.10425 4.10419C4.85425 3.35419 5.73619 2.7603 6.75008 2.32252C7.76397 1.8853 8.8473 1.66669 10.0001 1.66669C11.1529 1.66669 12.2362 1.8853 13.2501 2.32252C14.264 2.7603 15.1459 3.35419 15.8959 4.10419C16.6459 4.85419 17.2395 5.73613 17.6767 6.75002C18.1145 7.76391 18.3334 8.84724 18.3334 10C18.3334 11.1528 18.1145 12.2361 17.6767 13.25C17.2395 14.2639 16.6459 15.1459 15.8959 15.8959C15.1459 16.6459 14.264 17.2395 13.2501 17.6767C12.2362 18.1145 11.1529 18.3334 10.0001 18.3334ZM10.0001 16.6667C11.8473 16.6667 13.4204 16.0175 14.7192 14.7192C16.0176 13.4203 16.6667 11.8472 16.6667 10C16.6667 8.1528 16.0176 6.57974 14.7192 5.28085C13.4204 3.98252 11.8473 3.33335 10.0001 3.33335C8.15286 3.33335 6.58008 3.98252 5.28175 5.28085C3.98286 6.57974 3.33341 8.1528 3.33341 10C3.33341 11.8472 3.98286 13.4203 5.28175 14.7192C6.58008 16.0175 8.15286 16.6667 10.0001 16.6667Z" fill="#AA2F2F"/>
</g>
<line x1="12.1213" y1="7.87869" x2="7.8787" y2="12.1213" stroke="#AA2F2F" stroke-width="2" stroke-linecap="round"/>
<line x1="12.1214" y1="12.1213" x2="7.87879" y2="7.8787" stroke="#AA2F2F" stroke-width="2" stroke-linecap="round"/>
</svg>
