<svg width="20" height="20" viewBox="0 0 20 20" fill="none" xmlns="http://www.w3.org/2000/svg">
<mask id="mask0_0_419" style="mask-type:alpha" maskUnits="userSpaceOnUse" x="0" y="0" width="20" height="20">
<rect width="20" height="20" fill="#FF7A00"/>
</mask>
<g mask="url(#mask0_0_419)">
<path d="M12.1876 13.3542C12.3404 13.5069 12.5279 13.5833 12.7501 13.5833C12.9723 13.5833 13.1667 13.5 13.3334 13.3333C13.4862 13.1805 13.5626 12.9861 13.5626 12.75C13.5626 12.5139 13.4862 12.3194 13.3334 12.1667L10.8334 9.66666V6.64582C10.8334 6.40971 10.7537 6.21527 10.5942 6.06249C10.4342 5.90971 10.2362 5.83332 10.0001 5.83332C9.76397 5.83332 9.56619 5.91305 9.40675 6.07249C9.24675 6.23249 9.16675 6.43055 9.16675 6.66666V9.97916C9.16675 10.0903 9.18758 10.1978 9.22925 10.3017C9.27091 10.4061 9.33341 10.5 9.41675 10.5833L12.1876 13.3542ZM10.0001 18.3333C8.8473 18.3333 7.76397 18.1144 6.75008 17.6767C5.73619 17.2394 4.85425 16.6458 4.10425 15.8958C3.35425 15.1458 2.76064 14.2639 2.32341 13.25C1.88564 12.2361 1.66675 11.1528 1.66675 9.99999C1.66675 8.84721 1.88564 7.76388 2.32341 6.74999C2.76064 5.7361 3.35425 4.85416 4.10425 4.10416C4.85425 3.35416 5.73619 2.76027 6.75008 2.32249C7.76397 1.88527 8.8473 1.66666 10.0001 1.66666C11.1529 1.66666 12.2362 1.88527 13.2501 2.32249C14.264 2.76027 15.1459 3.35416 15.8959 4.10416C16.6459 4.85416 17.2395 5.7361 17.6767 6.74999C18.1145 7.76388 18.3334 8.84721 18.3334 9.99999C18.3334 11.1528 18.1145 12.2361 17.6767 13.25C17.2395 14.2639 16.6459 15.1458 15.8959 15.8958C15.1459 16.6458 14.264 17.2394 13.2501 17.6767C12.2362 18.1144 11.1529 18.3333 10.0001 18.3333ZM10.0001 16.6667C11.8473 16.6667 13.4204 16.0175 14.7192 14.7192C16.0176 13.4203 16.6667 11.8472 16.6667 9.99999C16.6667 8.15277 16.0176 6.57971 14.7192 5.28082C13.4204 3.98249 11.8473 3.33332 10.0001 3.33332C8.15286 3.33332 6.58008 3.98249 5.28175 5.28082C3.98286 6.57971 3.33341 8.15277 3.33341 9.99999C3.33341 11.8472 3.98286 13.4203 5.28175 14.7192C6.58008 16.0175 8.15286 16.6667 10.0001 16.6667Z" fill="#FF7A00"/>
</g>
</svg>
