<svg width="24" height="24" viewBox="0 0 24 24" fill="none" xmlns="http://www.w3.org/2000/svg">
<mask id="mask0_0_66" style="mask-type:alpha" maskUnits="userSpaceOnUse" x="0" y="0" width="24" height="24">
<rect width="24" height="24" fill="#D9D9D9"/>
</mask>
<g mask="url(#mask0_0_66)">
<path d="M14.2249 18.15C14.0749 18.0167 13.9959 17.8457 13.9879 17.637C13.9792 17.429 14.0499 17.25 14.1999 17.1L18.5499 12.75H3.1499C2.93324 12.75 2.75424 12.679 2.6129 12.537C2.4709 12.3957 2.3999 12.2167 2.3999 12C2.3999 11.7833 2.4709 11.604 2.6129 11.462C2.75424 11.3207 2.93324 11.25 3.1499 11.25H18.5499L14.1999 6.9C14.0666 6.76667 13.9959 6.59167 13.9879 6.375C13.9792 6.15833 14.0499 5.98333 14.1999 5.85C14.3332 5.7 14.5082 5.625 14.7249 5.625C14.9416 5.625 15.1166 5.7 15.2499 5.85L20.7749 11.375C20.8749 11.4583 20.9416 11.554 20.9749 11.662C21.0082 11.7707 21.0249 11.8833 21.0249 12C21.0249 12.1167 21.0082 12.229 20.9749 12.337C20.9416 12.4457 20.8749 12.55 20.7749 12.65L15.2499 18.15C15.1166 18.3 14.9459 18.375 14.7379 18.375C14.5292 18.375 14.3582 18.3 14.2249 18.15Z" fill="white"/>
</g>
</svg>
