<svg width="24" height="24" viewBox="0 0 24 24" fill="none" xmlns="http://www.w3.org/2000/svg">
<mask id="mask0_201_16283" style="mask-type:alpha" maskUnits="userSpaceOnUse" x="0" y="0" width="24" height="24">
<rect width="24" height="24" fill="#D9D9D9"/>
</mask>
<g mask="url(#mask0_201_16283)">
<path d="M15.125 21.1L6.70005 12.7C6.60005 12.6 6.52938 12.4917 6.48805 12.375C6.44605 12.2583 6.42505 12.1333 6.42505 12C6.42505 11.8667 6.44605 11.7417 6.48805 11.625C6.52938 11.5083 6.60005 11.4 6.70005 11.3L15.125 2.875C15.3584 2.64167 15.65 2.525 16 2.525C16.35 2.525 16.65 2.65 16.9 2.9C17.15 3.15 17.275 3.44167 17.275 3.775C17.275 4.10833 17.15 4.4 16.9 4.65L9.55005 12L16.9 19.35C17.1334 19.5833 17.25 19.8707 17.25 20.212C17.25 20.554 17.125 20.85 16.875 21.1C16.625 21.35 16.3334 21.475 16 21.475C15.6667 21.475 15.375 21.35 15.125 21.1Z" fill="white"/>
</g>
</svg>
