<svg width="24" height="24" viewBox="0 0 24 24" fill="none" xmlns="http://www.w3.org/2000/svg">
<mask id="mask0_201_16430" style="mask-type:alpha" maskUnits="userSpaceOnUse" x="0" y="0" width="24" height="24">
<rect y="24" width="24" height="24" transform="rotate(-90 0 24)" fill="#D9D9D9"/>
</mask>
<g mask="url(#mask0_201_16430)">
<path d="M21.1 8.87495L12.7 17.3C12.6 17.4 12.4917 17.4706 12.375 17.512C12.2584 17.554 12.1334 17.575 12 17.575C11.8667 17.575 11.7417 17.554 11.625 17.512C11.5084 17.4706 11.4 17.4 11.3 17.3L2.87502 8.87495C2.64169 8.64162 2.52502 8.34995 2.52502 7.99995C2.52502 7.64995 2.65002 7.34995 2.90002 7.09995C3.15002 6.84995 3.44169 6.72495 3.77502 6.72495C4.10836 6.72495 4.40002 6.84995 4.65002 7.09995L12 14.45L19.35 7.09995C19.5834 6.86662 19.8707 6.74995 20.212 6.74995C20.554 6.74995 20.85 6.87495 21.1 7.12495C21.35 7.37495 21.475 7.66662 21.475 7.99995C21.475 8.33328 21.35 8.62495 21.1 8.87495Z" fill="white"/>
</g>
</svg>
