<svg width="20" height="20" viewBox="0 0 20 20" fill="none" xmlns="http://www.w3.org/2000/svg">
<mask id="mask0_201_16266" style="mask-type:alpha" maskUnits="userSpaceOnUse" x="0" y="0" width="20" height="20">
<rect width="20" height="20" fill="#D9D9D9"/>
</mask>
<g mask="url(#mask0_201_16266)">
<path d="M10.0001 13.3333C11.0417 13.3333 11.9273 12.9689 12.6567 12.24C13.3856 11.5106 13.7501 10.625 13.7501 9.58333C13.7501 8.54167 13.3856 7.65611 12.6567 6.92667C11.9273 6.19778 11.0417 5.83333 10.0001 5.83333C8.95841 5.83333 8.07286 6.19778 7.34341 6.92667C6.61453 7.65611 6.25008 8.54167 6.25008 9.58333C6.25008 10.625 6.61453 11.5106 7.34341 12.24C8.07286 12.9689 8.95841 13.3333 10.0001 13.3333ZM10.0001 11.8333C9.37508 11.8333 8.84397 11.6144 8.40675 11.1767C7.96897 10.7394 7.75008 10.2083 7.75008 9.58333C7.75008 8.95833 7.96897 8.42694 8.40675 7.98917C8.84397 7.55194 9.37508 7.33333 10.0001 7.33333C10.6251 7.33333 11.1565 7.55194 11.5942 7.98917C12.0315 8.42694 12.2501 8.95833 12.2501 9.58333C12.2501 10.2083 12.0315 10.7394 11.5942 11.1767C11.1565 11.6144 10.6251 11.8333 10.0001 11.8333ZM10.0001 15.8333C8.06953 15.8333 6.30564 15.3231 4.70842 14.3025C3.11119 13.2814 1.90286 11.9028 1.08341 10.1667C1.04175 10.0972 1.01397 10.0103 1.00008 9.90583C0.986193 9.80194 0.979248 9.69444 0.979248 9.58333C0.979248 9.47222 0.986193 9.36444 1.00008 9.26C1.01397 9.15611 1.04175 9.06944 1.08341 9C1.90286 7.26389 3.11119 5.88556 4.70842 4.865C6.30564 3.84389 8.06953 3.33333 10.0001 3.33333C11.9306 3.33333 13.6945 3.84389 15.2917 4.865C16.889 5.88556 18.0973 7.26389 18.9167 9C18.9584 9.06944 18.9862 9.15611 19.0001 9.26C19.014 9.36444 19.0209 9.47222 19.0209 9.58333C19.0209 9.69444 19.014 9.80194 19.0001 9.90583C18.9862 10.0103 18.9584 10.0972 18.9167 10.1667C18.0973 11.9028 16.889 13.2814 15.2917 14.3025C13.6945 15.3231 11.9306 15.8333 10.0001 15.8333ZM10.0001 14.1667C11.5695 14.1667 13.0106 13.7533 14.3234 12.9267C15.6356 12.1006 16.639 10.9861 17.3334 9.58333C16.639 8.18056 15.6356 7.06583 14.3234 6.23917C13.0106 5.41306 11.5695 5 10.0001 5C8.43064 5 6.98953 5.41306 5.67675 6.23917C4.36453 7.06583 3.36119 8.18056 2.66675 9.58333C3.36119 10.9861 4.36453 12.1006 5.67675 12.9267C6.98953 13.7533 8.43064 14.1667 10.0001 14.1667Z" fill="#979797"/>
</g>
</svg>
