<svg width="113" height="99" viewBox="0 0 113 99" fill="none" xmlns="http://www.w3.org/2000/svg">
<g clip-path="url(#clip0_201_16256)">
<path d="M42.5359 0.797134H55.9218L81.1759 44.2846H97.3396L71.9433 0.797134H84.3187L113 49.9666L84.2073 99H72.0855L96.9861 56.1926L80.7571 56.2039L55.9871 99H43.2083L72.0855 50.2424L42.5359 0.797134Z" fill="#E31337"/>
<path d="M29.296 0L0 49.143L29.6341 98.3162L58.592 49.143L29.296 0ZM37.7947 73.1553L35.8622 70.0348L29.4996 80.8245L25.4155 73.9449L40.5226 48.7161L36.7843 42.5354L21.7156 67.8852L10.3352 48.9843L16.7785 38.1908L14.8766 35.1232L21.0432 24.7151L22.945 27.8545L29.3114 17.1857L33.2226 23.7555L18.1693 49.0788L21.8731 55.1347L36.9303 29.9852L48.2568 49.0032L42.0095 59.6002L43.9882 62.8643L37.7947 73.1553Z" fill="#E31337"/>
</g>
<defs>
<clipPath id="clip0_201_16256">
<rect width="113" height="99" fill="white"/>
</clipPath>
</defs>
</svg>
