<svg width="24" height="24" viewBox="0 0 24 24" fill="none" xmlns="http://www.w3.org/2000/svg">
<mask id="mask0_0_122" style="mask-type:alpha" maskUnits="userSpaceOnUse" x="0" y="0" width="24" height="24">
<rect width="24" height="24" fill="#D9D9D9"/>
</mask>
<g mask="url(#mask0_0_122)">
<path d="M8.57503 2.89985L17 11.2999C17.1 11.3999 17.1707 11.5082 17.212 11.6249C17.254 11.7415 17.275 11.8665 17.275 11.9999C17.275 12.1332 17.254 12.2582 17.212 12.3749C17.1707 12.4915 17.1 12.5999 17 12.6999L8.57502 21.1249C8.34169 21.3582 8.05002 21.4749 7.70002 21.4749C7.35002 21.4749 7.05002 21.3499 6.80003 21.0999C6.55003 20.8499 6.42503 20.5582 6.42503 20.2249C6.42503 19.8915 6.55003 19.5999 6.80003 19.3499L14.15 11.9999L6.80003 4.64985C6.56669 4.41652 6.45003 4.12919 6.45003 3.78785C6.45003 3.44585 6.57503 3.14985 6.82503 2.89985C7.07503 2.64985 7.36669 2.52485 7.70003 2.52485C8.03336 2.52485 8.32503 2.64985 8.57503 2.89985Z" fill="white"/>
</g>
</svg>
