<svg width="182" height="182" viewBox="0 0 182 182" fill="none" xmlns="http://www.w3.org/2000/svg">
<path d="M101.111 182V161.778H121.333V182H101.111ZM80.8889 161.778V111.222H101.111V161.778H80.8889ZM161.778 131.444V91H182V131.444H161.778ZM141.556 91V70.7778H161.778V91H141.556ZM20.2222 111.222V91H40.4444V111.222H20.2222ZM0 91V70.7778H20.2222V91H0ZM91 20.2222V0H111.222V20.2222H91ZM15.1667 45.5H45.5V15.1667H15.1667V45.5ZM0 60.6667V0H60.6667V60.6667H0ZM15.1667 166.833H45.5V136.5H15.1667V166.833ZM0 182V121.333H60.6667V182H0ZM136.5 45.5H166.833V15.1667H136.5V45.5ZM121.333 60.6667V0H182V60.6667H121.333ZM141.556 182V151.667H121.333V131.444H161.778V161.778H182V182H141.556ZM101.111 111.222V91H141.556V111.222H101.111ZM60.6667 111.222V91H40.4444V70.7778H101.111V91H80.8889V111.222H60.6667ZM70.7778 60.6667V20.2222H91V40.4444H111.222V60.6667H70.7778ZM22.75 37.9167V22.75H37.9167V37.9167H22.75ZM22.75 159.25V144.083H37.9167V159.25H22.75ZM144.083 37.9167V22.75H159.25V37.9167H144.083Z" fill="black"/>
</svg>
