<svg width="47" height="47" viewBox="0 0 47 47" fill="none" xmlns="http://www.w3.org/2000/svg">
<path d="M46.7067 19.7408C46.8252 20.3669 46.9032 20.9835 46.9408 21.5908C46.9803 22.1981 47 22.8345 47 23.5C47 26.7507 46.3833 29.8058 45.15 32.6654C43.9167 35.525 42.2425 38.0123 40.1274 40.1274C38.0123 42.2425 35.525 43.9167 32.6654 45.15C29.8058 46.3833 26.7507 47 23.5 47C20.2494 47 17.1942 46.3833 14.3346 45.15C11.475 43.9167 8.9877 42.2425 6.87262 40.1274C4.75753 38.0123 3.08332 35.525 1.84999 32.6654C0.616664 29.8058 0 26.7507 0 23.5C0 20.2494 0.616664 17.1942 1.84999 14.3346C3.08332 11.475 4.75753 8.9877 6.87262 6.87262C8.9877 4.75753 11.475 3.08332 14.3346 1.84999C17.1942 0.616664 20.2494 0 23.5 0C25.3801 0 27.1718 0.204928 28.8751 0.614784C30.5785 1.02652 32.2339 1.60464 33.8414 2.34915C34.5069 2.66313 34.928 3.16229 35.1048 3.84663C35.2796 4.53286 35.1518 5.18901 34.7212 5.81507C34.3697 6.36406 33.8902 6.72691 33.283 6.90364C32.6757 7.07848 32.0778 7.02866 31.4894 6.75417C30.2373 6.20707 28.9447 5.76713 27.6117 5.43436C26.2806 5.10158 24.9101 4.9352 23.5 4.9352C18.3693 4.9352 13.9925 6.74665 10.3696 10.3696C6.74665 13.9925 4.9352 18.3693 4.9352 23.5C4.9352 28.6307 6.74665 33.0075 10.3696 36.6305C13.9925 40.2534 18.3693 42.0648 23.5 42.0648C28.6307 42.0648 33.0075 40.2534 36.6305 36.6305C40.2534 33.0075 42.0648 28.6307 42.0648 23.5C42.0648 23.1089 42.0554 22.7367 42.0366 22.3832C42.0159 22.0317 41.9868 21.6792 41.9492 21.3257C41.8702 20.6207 41.9482 19.9551 42.1833 19.3291C42.4183 18.703 42.8488 18.2527 43.4749 17.9782C44.1799 17.6642 44.8652 17.6934 45.5307 18.0656C46.1982 18.4379 46.5901 18.9963 46.7067 19.7408ZM18.5056 32.4905L11.9263 25.8492C11.4562 25.3397 11.2306 24.7521 11.2494 24.0866C11.2701 23.421 11.5155 22.8533 11.9855 22.3832C12.4555 21.9132 13.0233 21.6782 13.6888 21.6782C14.3544 21.6782 14.9419 21.9132 15.4514 22.3832L20.3274 27.3184L41.8307 5.81507C42.3402 5.30557 42.9278 5.06116 43.5933 5.08184C44.2589 5.10064 44.8069 5.34505 45.2374 5.81507C45.7469 6.28509 46.0017 6.85288 46.0017 7.51842C46.0017 8.18585 45.7667 8.75457 45.2967 9.22459L22.0307 32.4905C21.5212 32.9981 20.9337 33.252 20.2682 33.252C19.6026 33.252 19.0151 32.9981 18.5056 32.4905Z" fill="#04AE53"/>
</svg>
