<svg width="24" height="24" viewBox="0 0 24 24" fill="none" xmlns="http://www.w3.org/2000/svg">
<mask id="mask0_0_423" style="mask-type:alpha" maskUnits="userSpaceOnUse" x="0" y="0" width="24" height="24">
<rect width="24" height="24" fill="#D9D9D9"/>
</mask>
<g mask="url(#mask0_0_423)">
<path d="M10.7 15.3C10.8833 15.4833 11.1167 15.575 11.4 15.575C11.6833 15.575 11.9167 15.4833 12.1 15.3L14 13.4L15.9 15.3C16.0833 15.4833 16.3167 15.575 16.6 15.575C16.8833 15.575 17.1167 15.4833 17.3 15.3C17.4833 15.1167 17.575 14.8833 17.575 14.6C17.575 14.3167 17.4833 14.0833 17.3 13.9L15.4 12L17.3 10.1C17.4833 9.91667 17.575 9.68333 17.575 9.4C17.575 9.11667 17.4833 8.88333 17.3 8.7C17.1167 8.51667 16.8833 8.425 16.6 8.425C16.3167 8.425 16.0833 8.51667 15.9 8.7L14 10.6L12.1 8.7C11.9167 8.51667 11.6833 8.425 11.4 8.425C11.1167 8.425 10.8833 8.51667 10.7 8.7C10.5167 8.88333 10.425 9.11667 10.425 9.4C10.425 9.68333 10.5167 9.91667 10.7 10.1L12.6 12L10.7 13.9C10.5167 14.0833 10.425 14.3167 10.425 14.6C10.425 14.8833 10.5167 15.1167 10.7 15.3ZM9.00001 19C8.66667 19 8.35401 18.925 8.06201 18.775C7.77067 18.625 7.53334 18.4167 7.35001 18.15L3.82501 13.15C3.59167 12.8 3.47501 12.4167 3.47501 12C3.47501 11.5833 3.59167 11.2 3.82501 10.85L7.35001 5.85C7.53334 5.58333 7.77067 5.375 8.06201 5.225C8.35401 5.075 8.66667 5 9.00001 5H19C19.55 5 20.021 5.196 20.413 5.588C20.8043 5.97933 21 6.45 21 7V17C21 17.55 20.8043 18.021 20.413 18.413C20.021 18.8043 19.55 19 19 19H9.00001ZM5.45001 12L9.00001 17H19V7H9.00001L5.45001 12Z" fill="#666666"/>
</g>
</svg>
