<svg width="16" height="16" viewBox="0 0 16 16" fill="none" xmlns="http://www.w3.org/2000/svg">
<mask id="mask0_201_16316" style="mask-type:alpha" maskUnits="userSpaceOnUse" x="0" y="0" width="16" height="16">
<rect y="16" width="16" height="16" transform="rotate(-90 0 16)" fill="#D9D9D9"/>
</mask>
<g mask="url(#mask0_201_16316)">
<path d="M14.0667 5.91655L8.46668 11.5332C8.40002 11.5999 8.32779 11.647 8.25002 11.6746C8.17224 11.7026 8.08891 11.7166 8.00002 11.7166C7.91113 11.7166 7.82779 11.7026 7.75002 11.6746C7.67224 11.647 7.60002 11.5999 7.53335 11.5332L1.91668 5.91655C1.76113 5.761 1.68335 5.56655 1.68335 5.33322C1.68335 5.09989 1.76668 4.89989 1.93335 4.73322C2.10002 4.56655 2.29446 4.48322 2.51668 4.48322C2.7389 4.48322 2.93335 4.56655 3.10002 4.73322L8.00002 9.63322L12.9 4.73322C13.0556 4.57766 13.2471 4.49989 13.4747 4.49989C13.7027 4.49989 13.9 4.58322 14.0667 4.74989C14.2334 4.91655 14.3167 5.111 14.3167 5.33322C14.3167 5.55544 14.2334 5.74989 14.0667 5.91655Z" fill="#E31337"/>
</g>
</svg>
